# xmcd
#
# Track frame offsets:
#	182
#	22217
#	39162
#	74055
#	89347
#	104640
#	130030
#	152317
#
# Disc length: 2382 seconds
# Revision: 1
# Processed by: cddbd v1.5.2PL0 Copyright (c) Steve Scherf et al.
# Submitted via: dBpowerAMP V12.0
#
DISCID=65094c08
DTITLE=Breakout - NOL (Niezidentyfikowany Obiekt Latajacy)
DYEAR=1976
DGENRE=Blues
TTITLE0=Taki wiatr
TTITLE1=Słuchaj rytmu
TTITLE2=W pochodzie codzienności
TTITLE3=Biel
TTITLE4=Chciałabym być słońcem
TTITLE5=Gdzie mnie wiodą
TTITLE6=Co to za człowiek
TTITLE7=Zabierz smutek
EXTD=
EXTT0=
EXTT1=
EXTT2=
EXTT3=
EXTT4=
EXTT5=
EXTT6=
EXTT7=
PLAYORDER=
